<svg id="Service_Card_Image" data-name="Service Card Image" xmlns="http://www.w3.org/2000/svg" width="233.768" height="276.347" viewBox="0 0 233.768 276.347">
  <g id="Group_504" data-name="Group 504" transform="translate(0 25.326)">
    <path id="Path_761" data-name="Path 761" d="M455.332,371.174c18.965,12.174,27.59,40.438,29.854,67.722s-1.774,53.59-11.562,82.221-25.266,59.647-49.614,70.23c-24.409,10.645-57.689.857-82.711-15.294-24.96-16.151-41.722-38.725-57.383-63.2s-30.282-50.9-31.751-80.631c-1.529-29.731,10.094-62.828,33.158-74.268,23.125-11.44,57.689-1.162,89.684,1.958S436.368,359,455.332,371.174Z" transform="translate(-252.032 -352.687)" fill="#47e1ae"/>
  </g>
  <path id="Path_762" data-name="Path 762" d="M534.641,876.38c10.167-25.6,29.984-38.723,31.067-70.152.036-2.324-38.3-27.049-56.177-26.633s-41.292,96.785-41.292,96.785Z" transform="translate(-390.128 -600.033)" fill="#fff"/>
  <rect id="Rectangle_130" data-name="Rectangle 130" width="114.704" height="204.389" transform="translate(66.466 0)" fill="rgba(255,255,255,0.81)"/>
  <rect id="Rectangle_131" data-name="Rectangle 131" width="91.84" height="35.561" transform="translate(77.898 89.489)" fill="#fff"/>
  <line id="Line_19" data-name="Line 19" x2="41.976" transform="translate(115.29 99.738)" fill="none"/>
  <line id="Line_20" data-name="Line 20" x2="17.054" transform="translate(115.29 110.745)" fill="none"/>
  <circle id="Ellipse_28" data-name="Ellipse 28" cx="9.699" cy="9.699" r="9.699" transform="translate(86.492 97.57)" fill="#47e1ae"/>
  <path id="Path_763" data-name="Path 763" d="M691.229,890.306c7.633-11.842,14.477-23.874,15.1-41.983" transform="translate(-532.557 -643.934)" fill="none"/>
  <path id="Path_764" data-name="Path 764" d="M647.035,1015.409a103.434,103.434,0,0,1,7.756-15.323" transform="translate(-504.329 -740.868)" fill="none"/>
  <rect id="Rectangle_132" data-name="Rectangle 132" width="91.84" height="35.561" transform="translate(77.898 37.281)" fill="#fff"/>
  <rect id="Rectangle_133" data-name="Rectangle 133" width="114.704" height="21.049" transform="translate(66.466 0)" fill="#47e1ae"/>
  <rect id="Rectangle_134" data-name="Rectangle 134" width="114.704" height="21.049" transform="translate(66.466 183.34)" fill="#47e1ae"/>
  <line id="Line_21" data-name="Line 21" x2="17.054" transform="translate(115.29 10.525)" fill="none"/>
  <circle id="Ellipse_29" data-name="Ellipse 29" cx="5.055" cy="5.055" r="5.055" transform="translate(118.762 188.809)" fill="#fff"/>
  <path id="Path_765" data-name="Path 765" d="M389.5,767.74c5.419-20.593,6.5-99.352,0-117.415,9.393-6.864,48.05-36.128,53.83-40.825,5.419,3.613,2.89,33.6-14.812,46.6v9.032c9.393,0,23.483,31.431,15.535,64.669-4.593,14.56,9.628,37.934,9.628,37.934Z" transform="translate(-339.836 -491.393)" fill="#fff"/>
  <path id="Path_766" data-name="Path 766" d="M517.239,779.491c6.894,11.3,12.178,33.748,6.6,57.085" transform="translate(-421.425 -599.97)" fill="none"/>
  <path id="Path_767" data-name="Path 767" d="M501.815,608.8c2.58-1.989,4.514-3.5,5.5-4.3,5.419,3.613,2.89,33.6-14.812,46.6v6.57" transform="translate(-405.624 -488.199)" fill="none"/>
  <path id="Path_768" data-name="Path 768" d="M399.534,663.463c8.145-6.078,21.435-16.114,32.139-24.266" transform="translate(-346.245 -510.361)" fill="none"/>
  <path id="Path_769" data-name="Path 769" d="M384.5,867.725c4.27-16.224,5.848-68.551,3.146-98.857" transform="translate(-336.642 -593.185)" fill="none"/>
  <line id="Line_22" data-name="Line 22" x2="7.951" transform="translate(149.315 47.529)" fill="none"/>
  <line id="Line_23" data-name="Line 23" x2="26.073" transform="translate(115.29 47.529)" fill="none"/>
  <line id="Line_24" data-name="Line 24" x2="17.054" transform="translate(115.29 58.536)" fill="none"/>
  <circle id="Ellipse_30" data-name="Ellipse 30" cx="9.699" cy="9.699" r="9.699" transform="translate(86.492 45.362)" fill="#47aee1"/>
  <path id="Path_770" data-name="Path 770" d="M734.444,702.164c26.674,17.828-16.51,51.657-28.044,61.011C703.416,761.035,701.346,732.007,734.444,702.164Z" transform="translate(-541.261 -550.579)" fill="#fff"/>
  <path id="Path_771" data-name="Path 771" d="M709.81,792.913c-3.828,3.312-7.207,6.009-9.421,7.8-4.15-2.251-2.719-18.662,9.027-36.948" transform="translate(-537.056 -589.928)" fill="none"/>
  <path id="Path_772" data-name="Path 772" d="M777.614,697.164c14.6,9.758,8.271,24.309-2.34,37.018" transform="translate(-586.238 -547.386)" fill="none"/>
  <path id="Path_775" data-name="Path 775" d="M709.2,615.766c-28.18,16.98-31.431,53.83-27.818,56,10.116-3.974,47.689-45.521,47.689-64.669,0-4.335-12.566-12.537-15.45-13.71-1.62-.632.1-3.3-5.657,2.033C707.995,600.71,707.575,610.592,709.2,615.766Z" transform="translate(-525.497 -480.317)" fill="#fff"/>
  <path id="Path_776" data-name="Path 776" d="M767.736,590.552c2.884,1.173,15.45,9.374,15.45,13.71,0,4.708-2.272,10.771-5.849,17.3" transform="translate(-581.423 -479.29)" fill="none"/>
  <path id="Path_777" data-name="Path 777" d="M704.092,681.757c-10.678,13.318-22.645,24.749-27.716,26.741-3.613-2.168-.361-39.018,27.818-56" transform="translate(-522.303 -518.858)" fill="none"/>
  <path id="Path_778" data-name="Path 778" d="M758.5,483.12c5.781-4.335,26.012-23.844,28.18-26.735,4.7-1.445,13.006,21.315-28.18,54.553" transform="translate(-575.524 -393.553)" fill="#fff"/>
  <path id="Path_779" data-name="Path 779" d="M769.884,560.114A141.333,141.333,0,0,1,753.5,575.427" transform="translate(-572.33 -459.849)" fill="none"/>
  <path id="Path_780" data-name="Path 780" d="M753.5,478.12c5.78-4.335,26.012-23.844,28.18-26.735,3.326-1.023,8.462,10.089-3.443,28.464" transform="translate(-572.33 -390.36)" fill="none"/>
</svg>
