<svg xmlns="http://www.w3.org/2000/svg" xmlns:xlink="http://www.w3.org/1999/xlink" width="1059.784" height="1078.432" viewBox="0 0 1059.784 1078.432">
  <defs>
    <filter id="Path_761" x="177.357" y="84.322" width="851.932" height="885.254" filterUnits="userSpaceOnUse">
      <feOffset dy="3" input="SourceAlpha"/>
      <feGaussianBlur stdDeviation="3" result="blur"/>
      <feFlood flood-opacity="0.09"/>
      <feComposite operator="in" in2="blur"/>
      <feComposite in="SourceGraphic"/>
    </filter>
  </defs>
  <g id="Group_671" data-name="Group 671" transform="translate(186.357 90.322)">
    <path id="Path_1517" data-name="Path 1517" d="M957.6,416.845c65.818,42.251,95.755,140.341,103.611,235.035s-6.158,185.989-40.128,285.353S933.4,1144.242,848.895,1180.973c-84.715,36.943-200.215,2.973-287.054-53.079-86.624-56.052-144.8-134.4-199.152-219.323S257.592,731.923,252.5,628.737c-5.307-103.185,35.032-218.049,115.076-257.752,80.256-39.7,200.215-4.033,311.256,6.795S891.782,374.594,957.6,416.845Z" transform="translate(1235.112 936.305) rotate(159)" fill="#47e1ae"/>
    <g transform="matrix(1, 0, 0, 1, -186.36, -90.32)" filter="url(#Path_761)">
      <path id="Path_761-2" data-name="Path 761" d="M725.245,65.946c67.654,43.429,98.425,144.255,106.5,241.59s-6.33,191.176-41.247,293.311S700.365,813.629,613.508,851.384c-87.077,37.974-205.8,3.056-295.059-54.559-89.04-57.615-148.838-138.145-204.706-225.44S5.715,389.811.477,283.747C-4.979,177.685,36.486,59.617,118.763,18.807,201.257-22,324.561,14.661,438.7,25.791S657.592,22.517,725.245,65.946Z" transform="translate(186.36 90.32)" fill="#47aee1"/>
    </g>
  </g>
</svg>
