<svg xmlns="http://www.w3.org/2000/svg" width="765.345" height="696.219" viewBox="0 0 765.345 696.219">
  <g id="Illustration" transform="translate(-1134.515 -493.171)">
    <g id="Group_418" data-name="Group 418" transform="translate(1637.386 497.674)" opacity="0.15">
      <path id="Path_538" data-name="Path 538" d="M795.12,298.931a28.614,28.614,0,1,1-28.614-28.614,28.614,28.614,0,0,1,28.614,28.614" transform="translate(-737.893 -270.317)" fill="#e4fff2"/>
    </g>
    <g id="Group_534" data-name="Group 534" transform="translate(1347.386 658.674)" opacity="0.15">
      <path id="Path_538-2" data-name="Path 538" d="M795.12,298.931a28.614,28.614,0,1,1-28.614-28.614,28.614,28.614,0,0,1,28.614,28.614" transform="translate(-737.893 -270.317)" fill="#e4fff2"/>
    </g>
    <g id="Group_532" data-name="Group 532" transform="translate(1247.386 513.674)" opacity="0.15">
      <path id="Path_538-3" data-name="Path 538" d="M795.12,298.931a28.614,28.614,0,1,1-28.614-28.614,28.614,28.614,0,0,1,28.614,28.614" transform="translate(-737.893 -270.317)" fill="#e4fff2"/>
    </g>
    <g id="Group_533" data-name="Group 533" transform="translate(1782.386 1034.674)" opacity="0.15">
      <path id="Path_538-4" data-name="Path 538" d="M795.12,298.931a28.614,28.614,0,1,1-28.614-28.614,28.614,28.614,0,0,1,28.614,28.614" transform="translate(-737.893 -270.317)" fill="#e4fff2"/>
    </g>
    <g id="Group_419" data-name="Group 419" transform="translate(1136.015 1024.2)" opacity="0.2">
      <path id="Path_539" data-name="Path 539" d="M930.706,608.548a70.014,70.014,0,1,1-70.014-70.014,70.015,70.015,0,0,1,70.014,70.014" transform="translate(-790.679 -538.534)" fill="none" stroke="#47aee1" stroke-width="3"/>
    </g>
    <g id="Group_420" data-name="Group 420" transform="matrix(0.695, 0.719, -0.719, 0.695, 1709.284, 495.292)" opacity="0.2">
      <rect id="Rectangle_115" data-name="Rectangle 115" width="150.022" height="150.022" fill="none" stroke="#47e1ae" stroke-linecap="round" stroke-linejoin="round" stroke-width="3"/>
    </g>
    <g id="Group_421" data-name="Group 421" transform="translate(1525.748 1187.545)">
      <path id="Path_540" data-name="Path 540" d="M574.744,994.331H947.011" transform="translate(-574.744 -994.331)" fill="none" stroke="#46514b" stroke-linecap="round" stroke-linejoin="round" stroke-width="3.69"/>
    </g>
    <g id="Group_422" data-name="Group 422" transform="translate(1163.893 1187.545)">
      <path id="Path_541" data-name="Path 541" d="M207.233,994.331h274.3" transform="translate(-207.233 -994.331)" fill="none" stroke="#46514b" stroke-linecap="round" stroke-linejoin="round" stroke-width="3.69"/>
    </g>
    <g id="Group_423" data-name="Group 423" transform="translate(1536.076 648.113)">
      <path id="Path_542" data-name="Path 542" d="M641.139,479.809l-1.53,7.353-10.239,3.181s-5.07-15.807-5.767-19.386c-4.97,3.678-33.3,11.631-38.2,12.337-.674-3.81-.677-36.827,26.85-36.827,24.252,0,35.127,24.284,35.765,27.131-1.423.833-6.879,2.855-6.879,6.211" transform="translate(-585.233 -446.467)" fill="#495254" stroke="#46514b" stroke-width="1"/>
    </g>
    <g id="Group_424" data-name="Group 424" transform="translate(1531.746 745.036)">
      <path id="Path_543" data-name="Path 543" d="M647.874,544.905c-6.157,0-50.815,45.065-52.65,54.5-.8,4.119-14.388,74.423-14.388,74.423l74.509-20.811,4.368-94.805L649.1,544.905Z" transform="translate(-580.836 -544.905)" fill="#fffefe" stroke="#46514b" stroke-width="1"/>
    </g>
    <g id="Group_425" data-name="Group 425" transform="translate(1506.748 726.332)">
      <path id="Path_544" data-name="Path 544" d="M555.448,675.466c-.13-5.193,42.648-140.221,47.467-144.806a16.047,16.047,0,0,1,12.179-4.731c2.126.1,12.345,4.927,14.5,10.02-3.684,8.72-12.551,13.564-12.551,13.564L599.789,656.167Z" transform="translate(-555.448 -525.909)" fill="#fff"/>
    </g>
    <g id="Group_426" data-name="Group 426" transform="translate(1499.923 954.649)">
      <path id="Path_545" data-name="Path 545" d="M607.425,760l61.817,76.523-29.985,30.137L548.515,787.33,569.982,757.8Z" transform="translate(-548.515 -757.795)" fill="#46514b"/>
    </g>
    <g id="Group_427" data-name="Group 427" transform="translate(1436.537 895.124)">
      <path id="Path_546" data-name="Path 546" d="M590.19,896.036c-8.355-7.567-106.051-129.3-106.051-144.365,0-33.581,38.1-45.489,48.506-48.1,14.317-1.3,77.869-6.618,87.866-6.206,7.208,7.809,90.9,25.822,103.028,24.272,0,6.072-9.646,48.549-78.1,48.549-7.175,0-61.133-2.152-62.137-2.152,0,12.628,34.584,94.856,37.885,100.454" transform="translate(-484.139 -697.339)" fill="#46514b"/>
    </g>
    <g id="Group_428" data-name="Group 428" transform="translate(1572.907 723.018)">
      <path id="Path_547" data-name="Path 547" d="M680.881,522.543c55.4,0,67.393,99.946,67.393,128.311,0,36.172-14.674,65.07-21.7,67.774-19.8,7.614-92.479-17.323-97.091-29.128-22.464-57.493,14.519-166.957,51.4-166.957" transform="translate(-622.64 -522.543)" fill="#fffefe"/>
    </g>
    <g id="Group_429" data-name="Group 429" transform="translate(1583.847 654.6)">
      <path id="Path_548" data-name="Path 548" d="M633.751,453.056a50.238,50.238,0,0,1,11.2,14.581q.727,1.409,1.355,2.836" transform="translate(-633.751 -453.056)" fill="none" stroke="#46514b" stroke-linecap="round" stroke-linejoin="round" stroke-width="3.69"/>
    </g>
    <g id="Group_430" data-name="Group 430" transform="translate(1532.414 644.591)">
      <path id="Path_549" data-name="Path 549" d="M587.117,496.819c-10.342-20.106-5.959-42.972,9.79-51.074a26.8,26.8,0,0,1,16.6-2.49" transform="translate(-581.515 -442.891)" fill="none" stroke="#46514b" stroke-linecap="round" stroke-linejoin="round" stroke-width="3.69"/>
    </g>
    <g id="Group_431" data-name="Group 431" transform="translate(1550.614 714.293)">
      <path id="Path_550" data-name="Path 550" d="M642.1,513.846a25.69,25.69,0,0,1-7.46,5.8c-10.749,5.53-24.015,2.752-34.642-5.961" transform="translate(-599.999 -513.682)" fill="none" stroke="#46514b" stroke-linecap="round" stroke-linejoin="round" stroke-width="3.69"/>
    </g>
    <g id="Group_432" data-name="Group 432" transform="translate(1588.462 671.979)">
      <path id="Path_551" data-name="Path 551" d="M638.438,476.66a9.439,9.439,0,1,1,4.664,11.987" transform="translate(-638.438 -470.706)" fill="none" stroke="#46514b" stroke-linecap="round" stroke-linejoin="round" stroke-width="3.69"/>
    </g>
    <g id="Group_433" data-name="Group 433" transform="translate(1583.827 720.934)">
      <path id="Path_552" data-name="Path 552" d="M646.343,546.45c-1.394-4.972-6.383-20.3-12.612-26.023" transform="translate(-633.731 -520.427)" fill="none" stroke="#46514b" stroke-linecap="round" stroke-linejoin="round" stroke-width="3.69"/>
    </g>
    <g id="Group_434" data-name="Group 434" transform="translate(1601.41 693.227)">
      <path id="Path_553" data-name="Path 553" d="M651.589,492.286c1.919,6.455,19.276,29.744,23.551,32.972-.256,2.808-5.781,8.229-11.993,12.845" transform="translate(-651.589 -492.286)" fill="none" stroke="#46514b" stroke-linecap="round" stroke-linejoin="round" stroke-width="3.69"/>
    </g>
    <g id="Group_435" data-name="Group 435" transform="translate(1579.228 677.933)">
      <path id="Path_554" data-name="Path 554" d="M629.06,486.5l7.7-2.393,1.529-7.353" transform="translate(-629.06 -476.753)" fill="none" stroke="#46514b" stroke-linecap="round" stroke-linejoin="round" stroke-width="3.69"/>
    </g>
    <g id="Group_436" data-name="Group 436" transform="translate(1558.491 669.082)">
      <path id="Path_555" data-name="Path 555" d="M608,472.915c5.732-1.914,10.626-3.815,12.433-5.151.506,2.6,3.326,11.673,4.827,16.427" transform="translate(-607.999 -467.764)" fill="none" stroke="#46514b" stroke-linecap="round" stroke-linejoin="round" stroke-width="3.69"/>
    </g>
    <g id="Group_437" data-name="Group 437" transform="translate(1532.723 678.029)">
      <path id="Path_556" data-name="Path 556" d="M581.828,480.24c1.889-.273,7.262-1.622,13.435-3.389" transform="translate(-581.828 -476.851)" fill="none" stroke="#46514b" stroke-linecap="round" stroke-linejoin="round" stroke-width="3.69"/>
    </g>
    <g id="Group_438" data-name="Group 438" transform="translate(1567.977 821.737)">
      <path id="Path_557" data-name="Path 557" d="M638.805,696.715c-7.772-3.878-13.179-7.65-14.332-10.6-6.931-17.736-8.2-40.418-5.566-63.307" transform="translate(-617.634 -622.805)" fill="none" stroke="#46514b" stroke-linecap="round" stroke-linejoin="round" stroke-width="3.69"/>
    </g>
    <g id="Group_439" data-name="Group 439" transform="translate(1621.663 789.385)">
      <path id="Path_558" data-name="Path 558" d="M736.437,589.948c5.769,23.133,7.666,45.735,7.666,57.015,0,36.172-14.673,65.07-21.7,67.774-9.281,3.569-30.18-.014-50.243-6.045" transform="translate(-672.158 -589.948)" fill="none" stroke="#46514b" stroke-linecap="round" stroke-linejoin="round" stroke-width="3.69"/>
    </g>
    <g id="Group_440" data-name="Group 440" transform="translate(1618.86 718.089)">
      <path id="Path_559" data-name="Path 559" d="M669.312,518.947a20.693,20.693,0,0,1,7.357-1.41c14.6,0,26.194,6.945,35.34,17.694" transform="translate(-669.312 -517.537)" fill="none" stroke="#46514b" stroke-linecap="round" stroke-linejoin="round" stroke-width="3.69"/>
    </g>
    <g id="Group_441" data-name="Group 441" transform="translate(1580.302 742.534)">
      <path id="Path_560" data-name="Path 560" d="M630.151,573.777a160.208,160.208,0,0,1,14.77-31.413" transform="translate(-630.151 -542.364)" fill="none" stroke="#46514b" stroke-linecap="round" stroke-linejoin="round" stroke-width="3.69"/>
    </g>
    <g id="Group_442" data-name="Group 442" transform="translate(1545.845 721.4)">
      <path id="Path_561" data-name="Path 561" d="M595.155,532.977c1.636-4.139,2.836-6.751,3.44-7.325a16.048,16.048,0,0,1,12.179-4.732c2.126.1,12.345,4.928,14.505,10.02" transform="translate(-595.155 -520.9)" fill="none" stroke="#46514b" stroke-linecap="round" stroke-linejoin="round" stroke-width="3.69"/>
    </g>
    <g id="Group_443" data-name="Group 443" transform="translate(1513.874 756.179)">
      <path id="Path_562" data-name="Path 562" d="M562.685,628.837c7.261-23.2,16.476-51.566,23.745-72.614" transform="translate(-562.685 -556.223)" fill="none" stroke="#46514b" stroke-linecap="round" stroke-linejoin="round" stroke-width="3.69"/>
    </g>
    <g id="Group_444" data-name="Group 444" transform="translate(1501.819 855.563)">
      <path id="Path_563" data-name="Path 563" d="M550.441,671.85c-.024-.968,1.444-6.424,3.878-14.69" transform="translate(-550.441 -657.16)" fill="none" stroke="#46514b" stroke-linecap="round" stroke-linejoin="round" stroke-width="3.69"/>
    </g>
    <g id="Group_445" data-name="Group 445" transform="translate(1563.123 730.335)">
      <path id="Path_564" data-name="Path 564" d="M612.7,529.975c2.1.332,7.2,3.431,9.855,6.532" transform="translate(-612.703 -529.975)" fill="none" stroke="#46514b" stroke-linecap="round" stroke-linejoin="round" stroke-width="3.69"/>
    </g>
    <g id="Group_446" data-name="Group 446" transform="translate(1557.22 737.809)">
      <path id="Path_565" data-name="Path 565" d="M606.708,537.565c2.1.333,7.2,3.432,9.853,6.532" transform="translate(-606.708 -537.565)" fill="none" stroke="#46514b" stroke-linecap="round" stroke-linejoin="round" stroke-width="3.69"/>
    </g>
    <g id="Group_447" data-name="Group 447" transform="translate(1546.159 748.837)">
      <path id="Path_566" data-name="Path 566" d="M595.474,651.018c.173-4.725,11.857-86.233,16.965-102.252" transform="translate(-595.474 -548.766)" fill="none" stroke="#46514b" stroke-linecap="round" stroke-linejoin="round" stroke-width="3.69"/>
    </g>
    <g id="Group_448" data-name="Group 448" transform="translate(1571.182 739.464)">
      <path id="Path_567" data-name="Path 567" d="M620.888,558.488c7.169-7.67,15.853-15.911,22.819-19.242" transform="translate(-620.888 -539.246)" fill="none" stroke="#46514b" stroke-linecap="round" stroke-linejoin="round" stroke-width="3.69"/>
    </g>
    <g id="Group_449" data-name="Group 449" transform="translate(1345.127 799.96)">
      <path id="Path_568" data-name="Path 568" d="M391.3,600.688,436.609,674.3" transform="translate(-391.3 -600.688)" fill="none" stroke="#46514b" stroke-linecap="round" stroke-linejoin="round" stroke-width="3.69"/>
    </g>
    <g id="Group_450" data-name="Group 450" transform="translate(1530.768 914.484)">
      <path id="Path_569" data-name="Path 569" d="M720.079,717c0,6.072-9.646,48.55-78.1,48.55-7.175,0-61.133-2.153-62.138-2.153,0,12.629,34.584,94.857,37.885,100.454" transform="translate(-579.843 -717.002)" fill="none" stroke="#46514b" stroke-linecap="round" stroke-linejoin="round" stroke-width="3.69"/>
    </g>
    <g id="Group_451" data-name="Group 451" transform="translate(1431.607 896.419)">
      <path id="Path_570" data-name="Path 570" d="M527.637,698.655c-10.045,3.759-48.5,14.522-48.5,48.1,0,15.069,97.7,136.8,106.05,144.367" transform="translate(-479.132 -698.655)" fill="none" stroke="#46514b" stroke-linecap="round" stroke-linejoin="round" stroke-width="3.69"/>
    </g>
    <g id="Group_452" data-name="Group 452" transform="translate(1532.777 1065.785)">
      <path id="Path_571" data-name="Path 571" d="M581.883,899.227l44.773-28.558" transform="translate(-581.883 -870.668)" fill="none" stroke="#46514b" stroke-linecap="round" stroke-linejoin="round" stroke-width="3.69"/>
    </g>
    <g id="Group_453" data-name="Group 453" transform="translate(1537.656 1074.253)">
      <path id="Path_572" data-name="Path 572" d="M586.838,907.252l46.209-27.984" transform="translate(-586.838 -879.268)" fill="none" stroke="#46514b" stroke-linecap="round" stroke-linejoin="round" stroke-width="3.69"/>
    </g>
    <g id="Group_454" data-name="Group 454" transform="translate(1556.132 1032.64)">
      <path id="Path_573" data-name="Path 573" d="M605.6,837.005l28.721,25.945" transform="translate(-605.603 -837.005)" fill="none" stroke="#46514b" stroke-linecap="round" stroke-linejoin="round" stroke-width="3.69"/>
    </g>
    <g id="Group_455" data-name="Group 455" transform="translate(1572.98 975.374)">
      <path id="Path_574" data-name="Path 574" d="M622.715,778.844l42.739,53.076" transform="translate(-622.715 -778.844)" fill="none" stroke="#46514b" stroke-linecap="round" stroke-linejoin="round" stroke-width="3.69"/>
    </g>
    <g id="Group_456" data-name="Group 456" transform="translate(1582.905 1024.639)">
      <path id="Path_575" data-name="Path 575" d="M670.558,828.879l-37.763,36.7" transform="translate(-632.795 -828.879)" fill="none" stroke="#46514b" stroke-linecap="round" stroke-linejoin="round" stroke-width="3.69"/>
    </g>
    <g id="Group_457" data-name="Group 457" transform="translate(1587.671 1031.719)">
      <path id="Path_576" data-name="Path 576" d="M675.4,836.069l-37.764,36.7" transform="translate(-637.635 -836.069)" fill="none" stroke="#46514b" stroke-linecap="round" stroke-linejoin="round" stroke-width="3.69"/>
    </g>
    <g id="Group_458" data-name="Group 458" transform="translate(1324.649 1154.921)">
      <path id="Path_577" data-name="Path 577" d="M370.5,961.2v32.622" transform="translate(-370.502 -961.197)" fill="none" stroke="#46514b" stroke-linecap="round" stroke-linejoin="round" stroke-width="3.69"/>
    </g>
    <g id="Group_459" data-name="Group 459" transform="translate(1324.648 896.421)">
      <path id="Path_578" data-name="Path 578" d="M370.5,698.657v197.92" transform="translate(-370.501 -698.657)" fill="none" stroke="#46514b" stroke-linecap="round" stroke-linejoin="round" stroke-width="3.69"/>
    </g>
    <g id="Group_460" data-name="Group 460" transform="translate(1475.327 896.419)">
      <path id="Path_579" data-name="Path 579" d="M523.535,698.655V989.778" transform="translate(-523.535 -698.655)" fill="none" stroke="#46514b" stroke-linecap="round" stroke-linejoin="round" stroke-width="3.69"/>
    </g>
    <g id="Group_461" data-name="Group 461" transform="translate(1602.423 745.768)">
      <path id="Path_580" data-name="Path 580" d="M700.76,547.079c26.379,9.182,12.946,65.678,5.522,67.583s-52.155-15.8-53.586-20.561,17.247-57.75,48.065-47.022" transform="translate(-652.618 -545.648)" fill="#fff" stroke="#46514b" stroke-width="1"/>
    </g>
    <g id="Group_462" data-name="Group 462" transform="translate(1597.493 740.834)">
      <path id="Path_581" data-name="Path 581" d="M667.187,550.4c7.637-7.653,17.289-12.261,28.565-8.335,26.379,9.182,12.946,65.678,5.522,67.583s-52.155-15.8-53.587-20.561c-.338-1.124.446-4.939,2.247-9.97" transform="translate(-647.61 -540.638)" fill="none" stroke="#46514b" stroke-linecap="round" stroke-linejoin="round" stroke-width="3.69"/>
    </g>
    <g id="Group_463" data-name="Group 463" transform="translate(1464.761 796.988)">
      <path id="Path_582" data-name="Path 582" d="M653.626,597.669c-2.149,3.151-14.033,41.588-14.033,41.588s-83.955,36.171-88.143,38.075c-1.523-2.094-6.544-5.9-16.753-5.9-18.66,0-21.893,12.374-21.893,15.039s28.366,8.567,35.981,8.377,114.035-16.372,117.842-18.275S695.9,614.522,695.9,614.522c-6.878-.366-38.67-10.2-42.27-16.853" transform="translate(-512.804 -597.669)" fill="#fff"/>
    </g>
    <g id="Group_464" data-name="Group 464" transform="translate(1459.831 792.056)">
      <path id="Path_583" data-name="Path 583" d="M600.622,681.878c-26.861,4.1-53.2,7.867-56.844,7.959-7.615.19-35.981-5.712-35.981-8.377s3.232-15.039,21.893-15.039c10.209,0,15.23,3.807,16.753,5.9,4.188-1.9,88.143-38.076,88.143-38.076s11.883-38.437,14.033-41.587" transform="translate(-507.797 -592.66)" fill="none" stroke="#46514b" stroke-linecap="round" stroke-linejoin="round" stroke-width="3.69"/>
    </g>
    <g id="Group_465" data-name="Group 465" transform="translate(1590.131 808.909)">
      <path id="Path_584" data-name="Path 584" d="M692.922,609.777s-25.462,60.146-29.27,62.049c-1.083.541-10.466,2.238-23.518,4.393" transform="translate(-640.134 -609.777)" fill="none" stroke="#46514b" stroke-linecap="round" stroke-linejoin="round" stroke-width="3.69"/>
    </g>
    <g id="Group_466" data-name="Group 466" transform="translate(1569.533 965.227)">
      <rect id="Rectangle_116" data-name="Rectangle 116" width="162.49" height="15.078" fill="#47e1ae" stroke="#46514b" stroke-width="1"/>
    </g>
    <g id="Group_467" data-name="Group 467" transform="translate(1564.599 960.295)">
      <path id="Path_585" data-name="Path 585" d="M715.894,778.607H614.2V763.529h162.49v15.078H748.141" transform="translate(-614.203 -763.529)" fill="none" stroke="#46514b" stroke-linecap="round" stroke-linejoin="round" stroke-width="3.69"/>
    </g>
    <g id="Group_468" data-name="Group 468" transform="translate(1280.6 888.237)">
      <rect id="Rectangle_117" data-name="Rectangle 117" width="247.225" height="12.411" transform="translate(0)" fill="#47e1ae" stroke="#46514b" stroke-width="1"/>
    </g>
    <g id="Group_469" data-name="Group 469" transform="translate(1276.377 884.01)">
      <path id="Path_586" data-name="Path 586" d="M390.225,686.052H568.7v12.411H321.475V686.052h38.051" transform="translate(-321.475 -686.052)" fill="none" stroke="#46514b" stroke-linecap="round" stroke-linejoin="round" stroke-width="3.69"/>
    </g>
    <g id="Group_470" data-name="Group 470" transform="translate(1394.66 877.797)">
      <rect id="Rectangle_118" data-name="Rectangle 118" width="87.07" height="10.44" fill="#47aee1" stroke="#46514b" stroke-width="1"/>
    </g>
    <g id="Group_471" data-name="Group 471" transform="translate(1390.436 873.571)">
      <rect id="Rectangle_119" data-name="Rectangle 119" width="87.07" height="10.44" transform="translate(0)" fill="none" stroke="#46514b" stroke-linecap="round" stroke-linejoin="round" stroke-width="3.69"/>
    </g>
    <g id="Group_472" data-name="Group 472" transform="translate(1546.148 1084.994)">
      <path id="Path_587" data-name="Path 587" d="M595.463,910.191l28.528,31.222L608.381,984.7l47.9-37.252-27.765-57.268" transform="translate(-595.463 -890.177)" fill="#fff"/>
    </g>
    <g id="Group_473" data-name="Group 473" transform="translate(1574.266 1080.064)">
      <path id="Path_588" data-name="Path 588" d="M640.643,919.456,624.021,885.17" transform="translate(-624.021 -885.17)" fill="none" stroke="#46514b" stroke-linecap="round" stroke-linejoin="round" stroke-width="3.69"/>
    </g>
    <g id="Group_474" data-name="Group 474" transform="translate(1541.217 1100.078)">
      <path id="Path_589" data-name="Path 589" d="M590.455,905.5l28.528,31.222L603.373,980l47.9-37.253-4.852-10.007" transform="translate(-590.455 -905.497)" fill="none" stroke="#46514b" stroke-linecap="round" stroke-linejoin="round" stroke-width="3.69"/>
    </g>
    <g id="Group_475" data-name="Group 475" transform="translate(1598.067 1042.468)">
      <path id="Path_590" data-name="Path 590" d="M674.506,846.986l15.9,27,10.982,5.716-20.891,48.52-4.77-30.523-27.531-25.137" transform="translate(-648.193 -846.986)" fill="#fff"/>
    </g>
    <g id="Group_476" data-name="Group 476" transform="translate(1593.135 1063.106)">
      <path id="Path_591" data-name="Path 591" d="M650.228,874.378l-7.043-6.43" transform="translate(-643.185 -867.947)" fill="none" stroke="#46514b" stroke-linecap="round" stroke-linejoin="round" stroke-width="3.69"/>
    </g>
    <g id="Group_477" data-name="Group 477" transform="translate(1614.759 1037.538)">
      <path id="Path_592" data-name="Path 592" d="M669.836,841.979l15.9,27,10.981,5.715-20.891,48.521-4.769-30.523-5.909-5.4" transform="translate(-665.146 -841.979)" fill="none" stroke="#46514b" stroke-linecap="round" stroke-linejoin="round" stroke-width="3.69"/>
    </g>
    <g id="Group_478" data-name="Group 478" transform="translate(1606.556 975.374)">
      <path id="Path_593" data-name="Path 593" d="M656.815,778.844V989.583" transform="translate(-656.815 -778.844)" fill="none" stroke="#46514b" stroke-linecap="round" stroke-linejoin="round" stroke-width="3.69"/>
    </g>
    <g id="Group_479" data-name="Group 479" transform="translate(1685.139 1055.8)">
      <path id="Path_594" data-name="Path 594" d="M736.627,860.527V990.839" transform="translate(-736.627 -860.527)" fill="none" stroke="#46514b" stroke-linecap="round" stroke-linejoin="round" stroke-width="3.69"/>
    </g>
    <g id="Group_480" data-name="Group 480" transform="translate(1685.139 975.372)">
      <path id="Path_595" data-name="Path 595" d="M736.627,778.842v44.386" transform="translate(-736.627 -778.842)" fill="none" stroke="#46514b" stroke-linecap="round" stroke-linejoin="round" stroke-width="3.69"/>
    </g>
    <g id="Group_481" data-name="Group 481" transform="translate(1558.87 681.722)">
      <path id="Path_596" data-name="Path 596" d="M608.6,484.13c.478,1.669,1.6,2.811,2.508,2.551s1.256-1.822.779-3.49-1.6-2.811-2.508-2.552-1.255,1.824-.779,3.491" transform="translate(-608.383 -480.602)" fill="#1b3c87" stroke="#46514b" stroke-width="1"/>
    </g>
    <g id="Group_482" data-name="Group 482" transform="translate(1547.579 703.652)">
      <path id="Path_597" data-name="Path 597" d="M597.493,502.874a8.022,8.022,0,0,1-.577,1.8" transform="translate(-596.916 -502.874)" fill="none" stroke="#46514b" stroke-linecap="round" stroke-linejoin="round" stroke-width="3.14"/>
    </g>
    <g id="Group_483" data-name="Group 483" transform="translate(1547.104 693.893)">
      <path id="Path_598" data-name="Path 598" d="M596.434,492.963a21.721,21.721,0,0,1,1.284,6.762" transform="translate(-596.434 -492.963)" fill="none" stroke="#46514b" stroke-linecap="round" stroke-linejoin="round" stroke-width="3.14"/>
    </g>
    <g id="Group_484" data-name="Group 484" transform="translate(1569.807 702.703)">
      <path id="Path_599" data-name="Path 599" d="M623.732,501.911c.289,2.21-1.255,5.634-4.24,7.634" transform="translate(-619.492 -501.911)" fill="none" stroke="#46514b" stroke-linecap="round" stroke-linejoin="round" stroke-width="3.14"/>
    </g>
  </g>
</svg>
