<svg xmlns="http://www.w3.org/2000/svg" width="27.495" height="47.33" viewBox="0 0 27.495 47.33">
  <g id="smartphone-call" transform="translate(-7.334)">
    <path id="Path_502" data-name="Path 502" d="M31.632,0h-21.1a3.206,3.206,0,0,0-3.2,3.2V44.132a3.207,3.207,0,0,0,3.2,3.2h21.1a3.2,3.2,0,0,0,3.2-3.2V3.2A3.206,3.206,0,0,0,31.632,0ZM17.706,2.3h6.751a.387.387,0,0,1,0,.775H17.706a.387.387,0,0,1,0-.775Zm3.375,43.427a1.6,1.6,0,1,1,1.6-1.6A1.6,1.6,0,0,1,21.081,45.732ZM32.6,41.414H9.558V5.07H32.6Z" transform="translate(0)" fill="#e3e3e3"/>
  </g>
</svg>
