<svg xmlns="http://www.w3.org/2000/svg" xmlns:xlink="http://www.w3.org/1999/xlink" width="329.643" height="335.127" viewBox="0 0 329.643 335.127">
  <defs>
    <filter id="Path_761" x="0" y="0" width="329.643" height="335.127" filterUnits="userSpaceOnUse">
      <feOffset dy="3" input="SourceAlpha"/>
      <feGaussianBlur stdDeviation="3" result="blur"/>
      <feFlood flood-opacity="0.09"/>
      <feComposite operator="in" in2="blur"/>
      <feComposite in="SourceGraphic"/>
    </filter>
  </defs>
  <g id="Group_645" data-name="Group 645" transform="translate(2361.05 -2736.492)">
    <g id="Group_625" data-name="Group 625" transform="translate(-2129.321 3059.618) rotate(-159)">
      <g id="Group_504" data-name="Group 504" transform="translate(0 0)">
        <g transform="matrix(-0.93, 0.36, -0.36, -0.93, 332.14, 218.62)" filter="url(#Path_761)">
          <path id="Path_761-2" data-name="Path 761" d="M207.482,18.866c19.355,12.424,28.158,41.269,30.468,69.115s-1.811,54.692-11.8,83.912-25.786,60.874-50.634,71.675c-24.911,10.864-58.876.874-84.412-15.609-25.473-16.483-42.58-39.521-58.563-64.495S1.635,111.519.136,81.176c-1.561-30.343,10.3-64.12,33.84-75.8,23.6-11.675,58.876-1.186,91.529,2S188.127,6.442,207.482,18.866Z" transform="translate(231.73 323.13) rotate(-159)" fill="#47aee1"/>
        </g>
      </g>
    </g>
    <g id="Group_626" data-name="Group 626" transform="translate(-2305.694 2864.01)">
      <path id="Path_1503" data-name="Path 1503" d="M462.531,269.654H275.261a2.093,2.093,0,0,1-2.091-2.091V159.755a2.093,2.093,0,0,1,2.091-2.091h187.27a2.093,2.093,0,0,1,2.091,2.091V267.563a2.093,2.093,0,0,1-2.091,2.091ZM275.261,158.129a1.628,1.628,0,0,0-1.626,1.626V267.563a1.628,1.628,0,0,0,1.626,1.626h187.27a1.628,1.628,0,0,0,1.626-1.626V159.755a1.628,1.628,0,0,0-1.626-1.626Z" transform="translate(-273.17 -157.664)" fill="#495254"/>
      <path id="Path_1504" data-name="Path 1504" d="M399.305,374.342h-59.16a1.977,1.977,0,0,1-1.975-1.975V335.889a1.977,1.977,0,0,1,1.975-1.975h59.16a1.977,1.977,0,0,1,1.975,1.975v36.478a1.977,1.977,0,0,1-1.975,1.975Z" transform="translate(-323.068 -292.963)" fill="#e6e6e6"/>
      <ellipse id="Ellipse_39" data-name="Ellipse 39" cx="1.626" cy="1.626" rx="1.626" ry="1.626" transform="translate(5.312 3.076)" fill="#fff"/>
      <ellipse id="Ellipse_40" data-name="Ellipse 40" cx="1.626" cy="1.626" rx="1.626" ry="1.626" transform="translate(9.959 3.076)" fill="#fff"/>
      <ellipse id="Ellipse_41" data-name="Ellipse 41" cx="1.626" cy="1.626" rx="1.626" ry="1.626" transform="translate(14.606 3.076)" fill="#fff"/>
      <rect id="Rectangle_1235" data-name="Rectangle 1235" width="190.987" height="1.162" transform="translate(0.232 8.597)" fill="#fff"/>
      <path id="Path_1507" data-name="Path 1507" d="M359.288,322.914a1.745,1.745,0,0,0-1.743,1.743v36.478a1.745,1.745,0,0,0,1.743,1.743h59.161a1.744,1.744,0,0,0,1.743-1.743V324.657a1.745,1.745,0,0,0-1.743-1.743Z" transform="translate(-337.05 -284.519)" fill="#97d6e9"/>
      <path id="Path_1508" data-name="Path 1508" d="M725.448,324.414a1.278,1.278,0,1,0,0,2.556h69.006a1.278,1.278,0,1,0,0-2.556Z" transform="translate(-618.492 -285.671)" fill="#fff"/>
      <path id="Path_1509" data-name="Path 1509" d="M725.448,359.414a1.278,1.278,0,1,0,0,2.556h69.006a1.278,1.278,0,0,0,0-2.556Z" transform="translate(-618.492 -312.538)" fill="#fff"/>
      <path id="Path_1510" data-name="Path 1510" d="M725.448,394.414a1.278,1.278,0,1,0,0,2.556h69.006a1.278,1.278,0,1,0,0-2.556Z" transform="translate(-618.492 -339.406)" fill="#fff"/>
      <path id="Path_1511" data-name="Path 1511" d="M725.448,429.414a1.278,1.278,0,1,0,0,2.556h69.006a1.278,1.278,0,0,0,0-2.556Z" transform="translate(-618.492 -366.274)" fill="#fff"/>
      <path id="Path_1512" data-name="Path 1512" d="M725.448,464.414a1.278,1.278,0,1,0,0,2.556h69.006a1.278,1.278,0,0,0,0-2.556Z" transform="translate(-618.492 -393.142)" fill="#fff"/>
      <path id="Path_1513" data-name="Path 1513" d="M725.448,499.414a1.278,1.278,0,1,0,0,2.556h69.006a1.278,1.278,0,1,0,0-2.556Z" transform="translate(-618.492 -420.01)" fill="#fff"/>
    </g>
  </g>
</svg>
